<svg width="54" height="51" viewBox="0 0 54 51" fill="none" xmlns="http://www.w3.org/2000/svg">
<path d="M50.1732 47.7171V11.7876H41.3846V0.647461L12.6156 7.6011V17.5596H3.82689V47.7171H0.257324V50.6475H53.7428V47.7171H50.1732ZM7.22615 47.7171V20.49H21.5021V47.7171H7.22615ZM24.9014 47.7171V17.5596H16.0147V9.82292L37.9852 4.51256L37.9361 47.7172H24.9014V47.7171ZM41.3845 47.7171V14.718H46.7738V47.7171H41.3845Z" fill="#7261FF"/>
<path d="M12.6645 25.1179H16.0638V31.012H12.6645V25.1179Z" fill="#7261FF"/>
<path d="M12.6645 35.8823H16.0638V41.7764H12.6645V35.8823Z" fill="#7261FF"/>
<path d="M29.0986 25.1179H32.4978V31.012H29.0986V25.1179Z" fill="#7261FF"/>
<path d="M29.0986 14.3533H32.4978V20.2474H29.0986V14.3533Z" fill="#7261FF"/>
<path d="M29.0986 35.8823H32.4978V41.7764H29.0986V35.8823Z" fill="#7261FF"/>
</svg>
